<mxfile host="65bd71144e">
    <diagram id="bVcXtUsdojeSgyOnRT37" name="Page-1">
        <mxGraphModel dx="2785" dy="2227" grid="1" gridSize="10" guides="1" tooltips="1" connect="1" arrows="1" fold="1" page="1" pageScale="1" pageWidth="827" pageHeight="1169" math="0" shadow="0">
            <root>
                <mxCell id="0"/>
                <mxCell id="1" parent="0"/>
                <mxCell id="5" value="" style="endArrow=classic;html=1;fontSize=30;strokeWidth=17;" parent="1" edge="1">
                    <mxGeometry width="50" height="50" relative="1" as="geometry">
                        <mxPoint x="1520" y="155" as="sourcePoint"/>
                        <mxPoint x="2010" y="155" as="targetPoint"/>
                    </mxGeometry>
                </mxCell>
                <mxCell id="6" value="Extraction des &lt;br style=&quot;font-size: 60px;&quot;&gt;informations" style="text;html=1;align=center;verticalAlign=middle;resizable=0;points=[];autosize=1;strokeColor=none;fillColor=none;fontSize=60;" parent="1" vertex="1">
                    <mxGeometry x="1560" width="400" height="150" as="geometry"/>
                </mxCell>
                <mxCell id="Qx6LJAiA3JiAy1VqBqcc-9" value="A heap-based buffer overflow vulnerability exists in the XML&lt;br style=&quot;font-size: 60px;&quot;&gt;Decompression EnumerationUncompressor::UncompressItem functionality of&lt;br style=&quot;font-size: 60px;&quot;&gt;AT&amp;amp;T Labs. A specially crafted XMI file can lead to remote&lt;br style=&quot;font-size: 60px;&quot;&gt;code execution." style="rounded=1;whiteSpace=wrap;html=1;fontSize=60;strokeWidth=15;" parent="1" vertex="1">
                    <mxGeometry x="-650" y="-100" width="1980" height="450" as="geometry"/>
                </mxCell>
                <mxCell id="Qx6LJAiA3JiAy1VqBqcc-10" value="A &lt;font color=&quot;#FF0000&quot; style=&quot;font-size: 60px;&quot;&gt;heap-based&lt;/font&gt; buffer &lt;font color=&quot;#0000FF&quot; style=&quot;font-size: 60px;&quot;&gt;overflow&lt;/font&gt; vulnerability exists in the XML&lt;br style=&quot;font-size: 60px;&quot;&gt;Decompression EnumerationUncompressor::UncompressItem functionality of&lt;br style=&quot;font-size: 60px;&quot;&gt;&lt;font color=&quot;#00FF00&quot; style=&quot;font-size: 60px;&quot;&gt;AT&amp;amp;T Labs&lt;/font&gt;. A specially crafted XMI file can lead to remote&lt;br style=&quot;font-size: 60px;&quot;&gt;&lt;font color=&quot;#FF8000&quot; style=&quot;font-size: 60px;&quot;&gt;code execution&lt;/font&gt;." style="rounded=1;whiteSpace=wrap;html=1;fontSize=60;strokeWidth=15;" parent="1" vertex="1">
                    <mxGeometry x="2210" y="-90" width="1980" height="450" as="geometry"/>
                </mxCell>
                <mxCell id="Qx6LJAiA3JiAy1VqBqcc-11" value="" style="endArrow=classic;html=1;fontSize=30;strokeWidth=17;" parent="1" edge="1">
                    <mxGeometry width="50" height="50" relative="1" as="geometry">
                        <mxPoint x="4382" y="155" as="sourcePoint"/>
                        <mxPoint x="4872" y="155" as="targetPoint"/>
                    </mxGeometry>
                </mxCell>
                <mxCell id="Qx6LJAiA3JiAy1VqBqcc-12" value="InterprÃ©tation des &lt;br style=&quot;font-size: 60px;&quot;&gt;informations" style="text;html=1;align=center;verticalAlign=middle;resizable=0;points=[];autosize=1;strokeColor=none;fillColor=none;fontSize=60;" parent="1" vertex="1">
                    <mxGeometry x="4382" width="480" height="150" as="geometry"/>
                </mxCell>
                <mxCell id="Qx6LJAiA3JiAy1VqBqcc-13" value="&lt;div&gt;&lt;font style=&quot;font-size: 60px&quot; color=&quot;#ff0000&quot;&gt;Zone: Tas&lt;/font&gt;&lt;font style=&quot;font-size: 60px&quot; color=&quot;#0000ff&quot;&gt;&lt;/font&gt;&lt;/div&gt;&lt;div&gt;&lt;font style=&quot;font-size: 60px&quot; color=&quot;#0000ff&quot;&gt;Type: Overflow&lt;/font&gt;&lt;/div&gt;&lt;font style=&quot;font-size: 60px&quot; color=&quot;#00ff00&quot;&gt;Compagnie: AT&amp;amp;T&lt;br style=&quot;font-size: 60px&quot;&gt;&lt;/font&gt;&lt;font color=&quot;#FF8000&quot;&gt;&lt;span style=&quot;background-color: rgb(255 , 255 , 255)&quot;&gt;&lt;font style=&quot;font-size: 60px&quot;&gt;Effet: Execution&lt;/font&gt;&lt;/span&gt;&lt;/font&gt;" style="rounded=1;whiteSpace=wrap;html=1;fontSize=55;fontColor=#FFFF00;strokeWidth=15;" parent="1" vertex="1">
                    <mxGeometry x="5090" y="-90" width="580" height="420" as="geometry"/>
                </mxCell>
            </root>
        </mxGraphModel>
    </diagram>
</mxfile>